<?xml version="1.0" encoding="utf-8"?>
<!-- Generator: Adobe Illustrator 16.0.2, SVG Export Plug-In . SVG Version: 6.00 Build 0)  -->
<!DOCTYPE svg PUBLIC "-//W3C//DTD SVG 1.1//EN" "http://www.w3.org/Graphics/SVG/1.1/DTD/svg11.dtd">
<svg version="1.1" id="Layer_1" xmlns="http://www.w3.org/2000/svg" xmlns:xlink="http://www.w3.org/1999/xlink" x="0px" y="0px"
	 width="470px" height="470px" viewBox="0 0 470 470" enable-background="new 0 0 470 470" xml:space="preserve">
<g>
	<path fill-rule="evenodd" clip-rule="evenodd" fill="#49B7B9" d="M223.58,10.98c8.199,0,16.399,0,24.598,0
		c6.141,0.974,12.332,1.705,18.414,2.962c40.105,8.292,73.345,28.114,98.133,60.786c31.42,41.416,40.987,87.802,28.813,138.458
		c-8.425,35.051-24.143,67.063-41.897,98.105c-27.481,48.046-60.492,92.2-96.075,134.479c-4.744,5.637-8.921,12.016-16.173,15.007
		c-2.343,0-4.685,0-7.028,0c-5.031-2.193-8.713-6.384-12.129-10.379c-29.32-34.288-56.789-69.989-81.152-108.013
		c-22.471-35.07-42.461-71.368-55.8-111.045c-13.606-40.471-14.796-80.95,2.589-120.358c23.834-54.026,65.216-86.872,123.644-97.587
		C214.195,12.537,218.892,11.783,223.58,10.98z M236.002,264.868c49.679-0.034,89.506-40.165,89.485-90.167
		c-0.02-49.008-40.394-89.076-89.73-89.05c-49.448,0.026-89.517,40.204-89.488,89.734
		C146.297,224.838,186.475,264.903,236.002,264.868z"/>
	<path fill-rule="evenodd" clip-rule="evenodd" fill="#FEFEFE" d="M236.002,264.868c-49.527,0.035-89.705-40.03-89.733-89.482
		c-0.028-49.53,40.04-89.708,89.488-89.734c49.336-0.026,89.71,40.042,89.73,89.05C325.508,224.703,285.681,264.834,236.002,264.868
		z M268.537,187.474c-0.332-1.303-0.664-2.607-0.996-3.911c-0.328-3.575-0.656-7.151-1.006-10.952
		c4.913-1.292,2.033-5.714,2.468-8.89c0.386-2.822-1.17-4.07-4.086-3.047c-2.753,0.966-5.461,2.312-8.302,2.731
		c-8.386,1.24-16.442,1.092-15.33-9.709c4.719-1.892,8.02-5.009,7.976-10.661c-0.005-0.522,0.868-0.998,1.095-1.587
		c0.469-1.223,1.255-2.581,1.073-3.754c-0.966-6.262-6.878-10.982-13.053-10.688c-6.443,0.306-12.147,5.648-12.049,12.19
		c0.056,3.729,1.545,7.436,2.468,11.501c-8.603,7.931-9.441,19.048-9.461,30.528c-1.963,0-3.917,0-6.143,0
		c0-6.538-0.028-12.803,0.01-19.068c0.024-3.944-1.942-6.072-5.803-6.163c-5.555-0.13-11.119-0.122-16.675,0.002
		c-3.632,0.081-5.7,2.107-5.755,5.791c-0.084,5.558-0.029,11.118-0.023,16.676c0.004,3.951,2.116,5.912,5.941,6.084
		c2.289,0.103,4.586,0.019,6.615,0.019c0.647,3.274,1.712,6.014,1.613,8.71c-0.212,5.775-1.084,11.525-1.529,17.297
		c-0.063,0.813,0.63,1.792,1.197,2.521c1.045,1.344,2.558,2.396,3.344,3.857c2.512,4.669,6.282,7.359,11.55,7.389
		c5.28,0.031,9.152-2.632,11.572-7.321c0.589-1.143,1-2.378,1.559-3.728c8.863,0,17.627,0.033,26.39-0.014
		c4.373-0.023,7.659,2.266,10.359,5.218c3.231,3.534,6.837,5.379,11.629,4.441c4.621-0.904,7.315-3.887,8.908-8.162
		c0.808-2.167,1.894-4.232,3.33-7.393c-1.39-5.292-5.509-9.194-12.16-10.745c-1.295-0.302-2.486-1.844-3.336-3.082
		C270.619,191.65,269.649,189.513,268.537,187.474z"/>
	<path fill-rule="evenodd" clip-rule="evenodd" fill="#111212" d="M268.537,187.474c1.112,2.04,2.082,4.177,3.39,6.083
		c0.85,1.238,2.041,2.779,3.336,3.082c6.651,1.551,10.771,5.453,12.16,10.745c-1.437,3.161-2.522,5.225-3.33,7.393
		c-1.593,4.274-4.287,7.257-8.908,8.162c-4.792,0.938-8.397-0.907-11.629-4.441c-2.7-2.953-5.986-5.242-10.359-5.218
		c-8.763,0.047-17.526,0.014-26.39,0.014c-0.558,1.35-0.969,2.585-1.559,3.728c-2.419,4.688-6.292,7.352-11.572,7.321
		c-5.268-0.03-9.038-2.72-11.55-7.389c-0.786-1.46-2.298-2.513-3.344-3.857c-0.567-0.729-1.26-1.708-1.197-2.521
		c0.445-5.772,1.316-11.521,1.529-17.297c0.099-2.696-0.966-5.436-1.613-8.71c-2.028,0-4.326,0.084-6.615-0.019
		c-3.825-0.172-5.937-2.133-5.941-6.084c-0.006-5.559-0.061-11.119,0.023-16.676c0.056-3.684,2.124-5.71,5.755-5.791
		c5.556-0.124,11.12-0.132,16.675-0.002c3.861,0.091,5.827,2.219,5.803,6.163c-0.038,6.265-0.01,12.53-0.01,19.068
		c2.226,0,4.18,0,6.143,0c0.02-11.479,0.858-22.597,9.461-30.528c-0.923-4.065-2.412-7.772-2.468-11.501
		c-0.098-6.542,5.606-11.884,12.049-12.19c6.175-0.294,12.087,4.426,13.053,10.688c0.182,1.173-0.604,2.531-1.073,3.754
		c-0.227,0.589-1.1,1.065-1.095,1.587c0.044,5.651-3.257,8.769-7.976,10.661c-1.112,10.801,6.944,10.95,15.33,9.709
		c2.841-0.42,5.549-1.766,8.302-2.731c2.916-1.023,4.472,0.225,4.086,3.047c-0.435,3.176,2.445,7.597-2.468,8.89
		c0.35,3.801,0.678,7.377,1.006,10.952c-1.374-2.838-3.142-5.562-4.012-8.547c-0.857-2.939-2.271-3.269-4.229-2.613
		c0.59,6.622,1.93,13.02,1.502,19.299c-0.422,6.224-2.624,12.327-4.2,19.15c1.372-0.834,2.68-1.317,3.552-2.22
		c2.539-2.624,4.721-5.612,7.393-8.081c2.201-2.034,2.176-3.977,1.439-6.593C268.412,191.917,268.656,189.644,268.537,187.474z
		 M201.107,185.17c0,1.396,0,2.649,0,4.058c5.768,1.418,11.805-0.797,17.29,2.251c-3.445,1.029-6.891,1.199-10.337,1.226
		c-6.364,0.048-7.797,1.742-6.798,8.222c10.512-10.523,26.032-5.921,29.419,9.451c6.632,0,13.345,0.138,20.042-0.129
		c1.188-0.048,2.31-1.78,3.461-2.734c-5.373-1.028-10.042-1.067-14.709-1.014c-2.752,0.032-3.99-1.105-3.841-3.965
		c0.163-3.167,0.037-6.348,0.037-9.379c-4.668-1.28-9.396,0.791-13.405-1.328c0.028-0.585,0.056-1.171,0.084-1.757
		c4.401-0.248,8.802-0.496,13.204-0.745c0-0.454,0.002-0.908,0.003-1.363C224.168,186.774,213.127,182.385,201.107,185.17z
		 M239.411,175.693c5.758,2.349,7.487,7.238,7.717,12.976c0.16,4.018-1.218,8.539,3.798,10.897c0.418,0.196,0.474,1.06,0.847,1.481
		c0.755,0.853,1.612,1.614,2.428,2.413c0.692-0.963,1.688-1.829,2.03-2.903c2.749-8.636,2.283-17.282-0.304-25.864
		c-0.267-0.886-1.035-2.285-1.616-2.308c-4.647-0.19-9.305-0.106-14.08-0.106c-0.196,0.531-0.487,1.199-0.684,1.894
		C239.431,174.581,239.464,175.032,239.411,175.693z M226.886,210.184c-0.801-7.005-6.052-11.884-12.754-12.008
		c-6.898-0.128-12.362,4.763-13.207,12.008C209.587,210.184,218.226,210.184,226.886,210.184z M238.435,157.168
		c-1.053-4.511-5.615-6.218-8.385-3.397c-5.778,5.881-7.251,13.318-7.518,21.336c4.761,0,9.216,0,13.52,0
		c1.977-3.625,1.443-6.029-2.247-7.878c-2.809-1.408-4.475-4.001-3.131-7.295C232.015,156.641,234.85,156.25,238.435,157.168z
		 M222.513,178.479c0.029,3.666,1.512,5.513,4.871,5.675c2.033,0.098,4.073,0.099,6.11,0.116c3.407,0.029,5.087,1.696,5.022,5.137
		c-0.046,2.427-0.01,4.854-0.01,7.417c2.078,0,3.618,0,5.21,0c0-4.078,0.343-8.011-0.104-11.853
		c-0.392-3.371-2.463-6.173-6.15-6.414C232.589,178.237,227.679,178.479,222.513,178.479z M248.171,138.495
		c-1.084-5.4-4.271-8.29-8.892-8.473c-4.799-0.189-8.836,3.1-9.948,8.106c-1.051,4.73,0.948,8.941,5.551,11.164
		c0-2,0.141-3.862-0.029-5.694c-0.358-3.851,1.42-5.316,5.114-5.128C242.574,138.602,245.193,138.495,248.171,138.495z
		 M187.713,173.837c0.759,3.005-1.725,7.124,2.839,7.514c6.461,0.552,13.004,0.14,19.432,0.14c0-2.891,0-5.263,0-7.654
		C202.558,173.837,195.458,173.837,187.713,173.837z M260.242,213.073c8.83-2.036,16.335-3.767,25.32-5.839
		c-3.177-2.74-5.16-5.125-7.701-6.409c-1.74-0.879-5.069-1.151-6.274-0.089C267.734,204.128,264.542,208.269,260.242,213.073z
		 M210.026,164.439c0.942-3.809-0.153-5.72-4.202-5.604c-4.512,0.128-9.033,0.109-13.546,0.005c-4.059-0.093-5.054,1.862-4.133,5.6
		C195.527,164.439,202.758,164.439,210.026,164.439z M223.121,213.247c-5.92,0-11.444-0.004-16.966,0.007
		c-0.541,0.001-1.082,0.103-1.641,0.159c1.031,4.917,4.327,7.827,8.903,8.004C218.019,221.595,221.554,218.76,223.121,213.247z
		 M265.105,215.027c2.499,4.561,5.957,5.983,10.149,4.862c3.98-1.065,5.97-4.019,6.199-8.628
		C275.849,212.553,270.685,213.742,265.105,215.027z M199.383,170.812c2.917,0,5.843,0.127,8.744-0.085
		c0.77-0.057,1.464-1.154,2.193-1.774c-0.705-0.503-1.402-1.429-2.117-1.443c-5.977-0.118-11.958-0.131-17.934,0.005
		c-0.827,0.019-1.631,1.033-2.445,1.586c0.791,0.57,1.554,1.581,2.378,1.634C193.25,170.932,196.321,170.813,199.383,170.812z
		 M248.097,168.777c0.027-0.557,0.161-1.027,0.036-1.112c-3.964-2.664-7.913-5.357-11.991-7.837
		c-0.501-0.305-2.308,0.391-2.465,0.928c-0.265,0.906-0.058,2.545,0.586,3.025C238.273,166.778,242.04,170.7,248.097,168.777z
		 M237.886,150.567c6.149-0.262,8.411-2.724,8.162-8.72c-2.664,0-5.339,0-8.162,0C237.886,144.846,237.886,147.582,237.886,150.567z
		 M238.033,202.341c0.331,0.311,0.663,0.622,0.995,0.932c3.293,0,6.588,0,10.321,0c-1.855-5.107-5.944-2.963-8.995-3.254
		C239.66,199.953,238.811,201.524,238.033,202.341z M265.852,164.147c-0.3-0.227-0.599-0.454-0.898-0.68
		c-1.451,2.325-6.887,0.016-6.115,5.524c2.698,0,4.814,0,7.014,0C265.852,167.231,265.852,165.689,265.852,164.147z"/>
	<path fill-rule="evenodd" clip-rule="evenodd" fill="#46B0B2" d="M268.537,187.474c0.119,2.17-0.125,4.443,0.448,6.485
		c0.736,2.616,0.762,4.559-1.439,6.593c-2.672,2.468-4.854,5.457-7.393,8.081c-0.872,0.902-2.18,1.386-3.552,2.22
		c1.576-6.823,3.778-12.926,4.2-19.15c0.428-6.279-0.912-12.677-1.502-19.299c1.959-0.656,3.372-0.327,4.229,2.613
		c0.87,2.985,2.638,5.708,4.012,8.547C267.873,184.867,268.205,186.17,268.537,187.474z"/>
	<path fill-rule="evenodd" clip-rule="evenodd" fill="#F3F3F2" d="M201.107,185.17c12.02-2.785,23.061,1.604,34.449,2.794
		c-0.001,0.455-0.003,0.909-0.003,1.363c-4.401,0.249-8.803,0.497-13.204,0.745c-0.028,0.586-0.056,1.171-0.084,1.757
		c4.009,2.119,8.736,0.048,13.405,1.328c0,3.031,0.126,6.212-0.037,9.379c-0.148,2.86,1.089,3.997,3.841,3.965
		c4.667-0.053,9.336-0.015,14.709,1.014c-1.151,0.954-2.273,2.686-3.461,2.734c-6.696,0.267-13.409,0.129-20.042,0.129
		c-3.388-15.372-18.908-19.974-29.419-9.451c-0.999-6.48,0.434-8.174,6.798-8.222c3.447-0.026,6.892-0.197,10.337-1.226
		c-5.485-3.048-11.522-0.833-17.29-2.251C201.107,187.82,201.107,186.566,201.107,185.17z"/>
	<path fill-rule="evenodd" clip-rule="evenodd" fill="#F5F4F3" d="M239.411,175.693c0.053-0.661,0.02-1.112,0.136-1.521
		c0.196-0.695,0.487-1.363,0.684-1.894c4.775,0,9.433-0.084,14.08,0.106c0.581,0.023,1.35,1.422,1.616,2.308
		c2.587,8.582,3.053,17.228,0.304,25.864c-0.343,1.074-1.338,1.94-2.03,2.903c-0.815-0.799-1.673-1.561-2.428-2.413
		c-0.373-0.421-0.429-1.285-0.847-1.481c-5.016-2.358-3.638-6.879-3.798-10.897C246.898,182.931,245.169,178.042,239.411,175.693z"
		/>
	<path fill-rule="evenodd" clip-rule="evenodd" fill="#47B3B5" d="M226.886,210.184c-8.66,0-17.299,0-25.961,0
		c0.845-7.246,6.309-12.137,13.207-12.008C220.834,198.3,226.084,203.178,226.886,210.184z"/>
	<path fill-rule="evenodd" clip-rule="evenodd" fill="#F1F1F0" d="M238.435,157.168c-3.584-0.918-6.419-0.528-7.761,2.765
		c-1.343,3.294,0.323,5.887,3.131,7.295c3.69,1.85,4.224,4.253,2.247,7.878c-4.304,0-8.759,0-13.52,0
		c0.267-8.018,1.74-15.455,7.518-21.336C232.82,150.951,237.382,152.658,238.435,157.168z"/>
	<path fill-rule="evenodd" clip-rule="evenodd" fill="#45ADAF" d="M222.513,178.479c5.166,0,10.076-0.241,14.95,0.079
		c3.688,0.241,5.759,3.043,6.15,6.414c0.446,3.842,0.104,7.775,0.104,11.853c-1.592,0-3.132,0-5.21,0
		c0-2.563-0.036-4.991,0.01-7.417c0.064-3.441-1.615-5.108-5.022-5.137c-2.037-0.017-4.077-0.018-6.11-0.116
		C224.025,183.991,222.542,182.145,222.513,178.479z"/>
	<path fill-rule="evenodd" clip-rule="evenodd" fill="#46B0B2" d="M248.171,138.495c-2.978,0-5.597,0.107-8.203-0.025
		c-3.694-0.188-5.472,1.277-5.114,5.128c0.169,1.832,0.029,3.693,0.029,5.694c-4.604-2.222-6.603-6.433-5.551-11.164
		c1.112-5.006,5.149-8.295,9.948-8.106C243.899,130.205,247.087,133.094,248.171,138.495z"/>
	<path fill-rule="evenodd" clip-rule="evenodd" fill="#F1F1F0" d="M187.713,173.837c7.744,0,14.845,0,22.271,0
		c0,2.391,0,4.763,0,7.654c-6.428,0-12.971,0.412-19.432-0.14C185.988,180.961,188.472,176.843,187.713,173.837z"/>
	<path fill-rule="evenodd" clip-rule="evenodd" fill="#F3F3F2" d="M260.242,213.073c4.3-4.804,7.492-8.945,11.345-12.337
		c1.205-1.062,4.534-0.79,6.274,0.089c2.541,1.284,4.524,3.668,7.701,6.409C276.577,209.306,269.072,211.037,260.242,213.073z"/>
	<path fill-rule="evenodd" clip-rule="evenodd" fill="#E1E0DE" d="M210.026,164.439c-7.268,0-14.499,0-21.881,0
		c-0.921-3.737,0.074-5.693,4.133-5.6c4.514,0.104,9.034,0.123,13.546-0.005C209.873,158.719,210.968,160.63,210.026,164.439z"/>
	<path fill-rule="evenodd" clip-rule="evenodd" fill="#E8E7E5" d="M223.121,213.247c-1.567,5.513-5.102,8.349-9.704,8.171
		c-4.577-0.178-7.872-3.087-8.903-8.004c0.559-0.057,1.1-0.158,1.641-0.159C211.677,213.242,217.201,213.247,223.121,213.247z"/>
	<path fill-rule="evenodd" clip-rule="evenodd" fill="#EDECEA" d="M265.105,215.027c5.579-1.285,10.743-2.475,16.349-3.766
		c-0.229,4.609-2.219,7.563-6.199,8.628C271.063,221.011,267.604,219.588,265.105,215.027z"/>
	<path fill-rule="evenodd" clip-rule="evenodd" fill="#42A9AA" d="M199.383,170.812c-3.062,0.001-6.133,0.12-9.182-0.077
		c-0.824-0.053-1.587-1.063-2.378-1.634c0.814-0.553,1.618-1.567,2.445-1.586c5.976-0.137,11.957-0.123,17.934-0.005
		c0.715,0.014,1.412,0.94,2.117,1.443c-0.729,0.62-1.423,1.718-2.193,1.774C205.226,170.938,202.299,170.812,199.383,170.812z"/>
	<path fill-rule="evenodd" clip-rule="evenodd" fill="#46B0B2" d="M248.097,168.777c-6.057,1.922-9.823-1.999-13.834-4.996
		c-0.644-0.48-0.851-2.119-0.586-3.025c0.158-0.537,1.964-1.232,2.465-0.928c4.078,2.48,8.027,5.173,11.991,7.837
		C248.258,167.75,248.124,168.22,248.097,168.777z"/>
	<path fill-rule="evenodd" clip-rule="evenodd" fill="#F1F1F0" d="M237.886,150.567c0-2.985,0-5.721,0-8.72c2.823,0,5.498,0,8.162,0
		C246.297,147.844,244.035,150.306,237.886,150.567z"/>
	<path fill-rule="evenodd" clip-rule="evenodd" fill="#F4F3F3" d="M238.033,202.341c0.777-0.817,1.627-2.388,2.321-2.322
		c3.051,0.291,7.14-1.854,8.995,3.254c-3.733,0-7.028,0-10.321,0C238.696,202.963,238.364,202.652,238.033,202.341z"/>
	<path fill-rule="evenodd" clip-rule="evenodd" fill="#F2F1F0" d="M265.852,164.147c0,1.542,0,3.083,0,4.844
		c-2.199,0-4.315,0-7.014,0c-0.771-5.508,4.664-3.199,6.115-5.524C265.253,163.694,265.552,163.92,265.852,164.147z"/>
	<path fill-rule="evenodd" clip-rule="evenodd" fill="#49B7B9" d="M230.677,459.942c0,0,4.323,2.975,8.657,0.995l1.846-0.995"/>
</g>
</svg>
